PathFileType	4	(X/Y/Z)	Patient4_TMGait_0pt8_01_left_01.trc.trc
DataRate	CameraRate	NumFrames	NumMarkers	Units	OrigDataRate	OrigDataStartFrame	OrigNumFrames
86.956521739130	86.956521739130	6	33	mm	86.956521739130	124	       141
Frame#	Time	Sacral			L.Shoulder			Chest			R.Shoulder			Neck			R.ASIS			L.ASIS			R.Thigh.Superior			R.Thigh.Lateral			R.Thigh.Inferior			R.Patella			L.Thigh.Superior			L.Thigh.Lateral			L.Thigh.Inferior			L.Patella			L.Shank.Superior			L.Shank.Lateral			L.Shank.Inferior			R.Shank.Superior			R.Shank.Lateral			R.Shank.Inferior			R.Heel			R.Midfoot.Superior			R.Midfoot.Lateral			R.Toe			L.Heel			L.Midfoot.Lateral			L.Midfoot.Superior			L.Toe			L.Elbow			L.Wrist			R.Elbow			R.Wrist			
		X1	Y1	Z1	X2	Y2	Z2	X3	Y3	Z3	X4	Y4	Z4	X5	Y5	Z5	X6	Y6	Z6	X7	Y7	Z7	X8	Y8	Z8	X9	Y9	Z9	X10	Y10	Z10	X11	Y11	Z11	X12	Y12	Z12	X13	Y13	Z13	X14	Y14	Z14	X15	Y15	Z15	X16	Y16	Z16	X17	Y17	Z17	X18	Y18	Z18	X19	Y19	Z19	X20	Y20	Z20	X21	Y21	Z21	X22	Y22	Z22	X23	Y23	Z23	X24	Y24	Z24	X25	Y25	Z25	X26	Y26	Z26	X27	Y27	Z27	X28	Y28	Z28	X29	Y29	Z29	X30	Y30	Z30	X31	Y31	Z31	X32	Y32	Z32	X33	Y33	Z33	

124	1.554500000000	777.437272531419	999.919376524268	473.754586047411	958.457373351343	1410.502682505024	269.842620455082	1068.445037461772	1342.911912561667	426.821124862147	1001.267616782197	1429.863943270781	600.436712244175	964.541789508160	1477.533242741284	423.150268528979	1003.717464498962	927.591830720734	584.834823860594	982.980364056118	938.308470415757	309.079096539454	990.127198083240	713.574565589122	559.323760552425	877.551772640195	625.803050912741	618.231047891056	933.962504969046	556.695712616732	538.669896101880	909.063863832019	471.398916277630	540.354031596998	1053.449405197004	761.767747064605	345.369034666268	1005.961537298378	630.506776640402	267.427950424258	1109.233331853851	575.048696330872	332.530812299072	1137.040416618544	514.456282789902	331.551027805741	1127.832920390234	443.395052830285	322.094704957009	1076.145192551949	305.389904228484	277.848204426927	1175.608915081798	219.634186783568	334.261632540088	865.177680793100	390.795530051522	546.563489997569	777.531090596581	301.736174169601	610.204112290985	796.552786893731	201.937653518459	543.693092025193	636.475069565016	50.410989360978	517.309152857216	811.252799160440	96.920198047601	546.458301437582	722.060768539832	39.590972972603	588.111782899880	929.820307870290	38.288788149309	570.357239471641	1113.165622326115	38.321972439887	380.965466419280	1186.203030159167	44.129475051135	300.220533643102	1251.500408658113	125.417481431255	317.886975669858	1386.560321252224	103.044605074342	292.535969074583	794.613261200896	1092.449659102740	206.145598190869	730.946832156328	842.020859877169	245.197895384180	1157.612410269209	1134.028217087995	711.100690991703	1369.291221427377	1233.729335111956	623.818752338181	
125	1.566000000000	779.257241659050	998.163865647171	470.604462928658	958.863475904599	1409.270584103683	267.730251588209	1068.814513652458	1342.266059372060	424.991190138941	1000.563011728264	1428.762796035455	598.439819228030	964.250015852669	1476.246642077776	421.115447592719	1005.071782189392	926.013201947445	583.023868902223	985.917296326595	936.787100974040	307.201936927644	990.388018415680	711.739643847486	557.913038561655	876.903705623701	624.716456235141	616.608625238925	933.190016811939	554.950390277746	537.394807400843	907.369300038898	469.087846584371	539.078663579903	1056.781962947795	760.395893626027	343.945315985660	1007.837964586574	628.583944492936	267.587586717894	1111.526572326783	573.642835267357	331.871263604067	1137.938052049629	511.721584801270	331.783850346268	1128.305842497318	440.186026863722	322.488113659334	1074.396023413298	302.878323027554	279.180628048399	1172.313938892220	215.907984030711	335.996712160754	861.956910686771	389.163539372656	545.436114930153	772.594425929015	301.894940170541	609.319882185316	789.741096456852	201.586458233294	543.288525369368	627.317947021855	51.867537122583	517.579038069527	802.499586725365	97.043837353237	546.464303958221	712.932523144130	40.181339997409	588.213465050148	920.644153310324	38.081230811688	570.439393788883	1106.104085811883	37.564715254205	383.664329368995	1178.050778334113	41.971961011458	301.783656033942	1246.224432578990	120.409534363029	319.742594362796	1380.154525990625	93.600453013987	292.051798911660	795.748024172430	1091.057626378321	203.911976489176	732.825188571394	840.261830285361	242.220437666765	1157.727602339103	1132.916746404825	708.286174346812	1366.435784087736	1237.891299597533	620.745257672216	
126	1.577500000000	781.082364351761	996.497732172696	467.432753894205	959.342676235839	1408.056847472197	265.452804991901	1069.259165903696	1341.675911328124	423.022385084814	999.937708684637	1427.779023796207	596.321368990595	964.065543555516	1475.071641864629	418.874750724458	1006.438055228044	924.506770700491	581.169585400170	988.887895826653	935.411453590170	305.308579907823	991.027945767850	709.996497949771	556.469636083080	876.825206001838	623.509660491674	614.858357852565	933.218427383508	553.146010973645	536.065697338430	906.586717833663	466.509168987125	537.841946470077	1060.412898507102	759.439422843572	342.612954558933	1010.373091685391	627.232206957623	267.549498553241	1114.378697045454	572.749276589712	331.206249870144	1139.301343336704	509.362995408495	331.956281712905	1129.195869946155	437.285556158847	322.727309797888	1072.930893008413	300.852698373567	279.893108224545	1168.780296487416	212.339440855448	337.406029115878	859.405379379195	387.391652676233	544.275023654432	768.133805692376	302.169410667684	608.402543835997	783.242712717404	201.318813069088	542.915434788564	618.187379065156	53.733813017394	517.920811849366	793.910650172524	97.169105350350	546.536998203597	703.821472266473	40.930824812014	588.347388810994	911.451195911164	37.864161889297	570.491349243656	1097.978485621482	37.101876169157	385.748945300415	1169.034098045118	40.001779482079	302.894650287793	1240.227083582597	115.453608383874	321.359858678350	1373.003026855329	83.910792169501	291.668340635700	797.686391770405	1089.186046284308	201.345108197097	735.973053758877	837.901373529642	238.679099278056	1157.000463147026	1131.326235010180	705.829983167516	1363.125161802804	1240.706307327111	617.965463508031	
127	1.589000000000	782.868950474455	994.983669503113	464.289851573624	959.922263109584	1406.907182920573	263.026568556929	1069.782864275797	1341.169055746662	420.939284336157	999.419905347069	1426.974554751965	594.093228912547	964.016388511618	1474.067239083334	416.437893948869	1007.781889314882	923.140493281933	579.274616626102	991.817739872127	934.256793161551	303.410215401769	992.065696493646	708.413112147165	554.990786594981	877.378869082011	622.209737101503	612.991146790308	934.141849100272	551.327645350885	534.703083179167	906.850038025125	463.684521920068	536.718345936506	1064.190027204867	758.910032971484	341.365608922823	1013.463441954093	626.504321714488	267.188982105809	1117.624616824056	572.353784945294	330.468303967863	1141.038372402287	507.482998560548	331.953788682645	1130.432536667046	434.816231659650	322.728838655291	1071.830518002064	299.386226109970	279.898963716461	1165.174786810759	209.128678593614	338.404171866168	857.614249473519	385.527307013396	543.133348520632	764.226202709516	302.648613477357	607.472318105840	777.156451774351	201.216787535622	542.602140777060	609.157403435254	56.174848231654	518.316893038718	785.563420696859	97.304919523960	546.679069213321	694.765944031776	41.934756716157	588.503605030363	902.240168959564	37.628933503207	570.502747122377	1089.248829579632	36.924712227560	387.169250264015	1159.662246339611	38.318193825012	303.557936312652	1233.773743399346	110.873013893960	322.673427903839	1365.444913173098	74.691256111024	291.457049173757	800.450847946028	1086.884272921473	198.459514746497	740.396967971796	835.008521703033	234.626552131755	1155.378574793309	1129.294489666412	703.749287847357	1359.400854940222	1242.157115232054	615.472521661898	
128	1.600500000000	784.576829008343	993.685021902298	461.214538590494	960.617236124945	1405.874935485731	260.475125341348	1070.379809691926	1340.783528147047	418.771164291422	999.025243723403	1426.414516656861	591.770636382384	964.118714772660	1473.291788805121	413.822316221299	1009.067314960839	921.985465818284	577.334829035869	994.633425546554	933.398108948662	301.508257187838	993.518358986163	707.065544419577	553.465052883211	878.635811224125	620.857325367137	611.031864403294	936.059205879152	549.554920588498	533.338701963881	908.295528946098	460.663102277957	535.796585712247	1067.955930826672	758.807179443717	340.165690201065	1016.943981750610	626.404370183197	266.423045530577	1121.056701078207	572.408732476480	329.583645721020	1143.014396599112	506.130101578383	331.674995968243	1131.874798280648	432.841339125050	322.443833586248	1071.035575034154	298.502796809609	279.206588467650	1161.533802930348	206.408350477334	338.966370944936	856.694972499471	383.638020018169	542.080213707813	760.973818375481	303.438763857980	606.552131122895	771.609679196187	201.382853383960	542.377631708153	600.344900685276	59.395461054330	518.730508105113	777.557389072843	97.482358114710	546.887405994894	685.829040832269	43.327704401538	588.660199163584	893.017700771783	37.363505031405	570.467200186481	1080.246362250285	36.986124829188	387.958537027528	1150.269284449121	36.980630347020	303.820670571580	1226.999372294307	106.913737991159	323.653817173462	1357.675290974905	66.532570431237	291.425577978702	804.056113079454	1084.225982443662	195.274771282639	746.108558050712	831.676963319302	230.114414151471	1152.795761929734	1126.889974667362	702.045058095460	1355.292660489755	1242.212713511973	613.260485420440	
129	1.612000000000	786.171771510477	992.660455983778	458.227990312562	961.429928594011	1405.016850189638	257.827672410574	1071.034526164196	1340.563504652055	416.550010583143	998.753395069748	1426.159312268161	589.371269537862	964.374289847705	1472.797304312138	411.054272866453	1010.257248140668	921.109408138995	575.341704032039	997.269239862706	932.900869003225	299.594805040580	995.402984501936	706.033430920815	551.879755204053	880.672285072496	619.504474537171	609.021219702144	939.070097359276	547.900158373861	532.018418549195	911.052556120424	457.522959952325	535.173292654083	1071.555617584495	759.105283820222	338.939939496353	1020.577570453016	626.876347248192	265.222115677811	1124.423286420760	572.825938623514	328.481409516586	1145.038359041602	505.285682175755	331.053095742597	1133.311312839780	431.358979333999	321.860946263727	1070.360226310910	298.167414988571	277.915118914845	1157.785888698936	204.235679865963	339.123438203000	856.778902695066	381.807838931154	541.194450268625	758.505283489441	304.655870109265	605.664204940838	766.754963364181	201.936105612009	542.266244231989	591.914067663060	63.633142826553	519.101997345879	770.011485714840	97.764220296766	547.152035426809	677.102366253542	45.285715995285	588.780245419478	883.801526972289	37.053291345773	570.385306328644	1071.177660319846	37.214723951686	388.212106705501	1141.029502299662	36.005117041901	303.760451178767	1219.943858464897	103.721010326400	324.309142828260	1349.775465669534	59.831017313166	291.537782277417	808.510110655126	1081.306347101545	191.812895534983	753.128548395887	828.022247636367	225.190215896576	1149.173274683202	1124.209088208405	700.702657727427	1350.811740143284	1240.828273136437	611.325660412968	
